<?xml version="1.0" standalone="no"?><svg xmlns="http://www.w3.org/2000/svg" viewBox="0 0 1440 320"><path fill="#5000ca" fill-opacity="1" d="M0,96L16,122.7C32,149,64,203,96,213.3C128,224,160,192,192,186.7C224,181,256,203,288,208C320,213,352,203,384,213.3C416,224,448,256,480,272C512,288,544,288,576,261.3C608,235,640,181,672,170.7C704,160,736,192,768,218.7C800,245,832,267,864,277.3C896,288,928,288,960,256C992,224,1024,160,1056,160C1088,160,1120,224,1152,245.3C1184,267,1216,245,1248,197.3C1280,149,1312,75,1344,64C1376,53,1408,107,1424,133.3L1440,160L1440,320L1424,320C1408,320,1376,320,1344,320C1312,320,1280,320,1248,320C1216,320,1184,320,1152,320C1120,320,1088,320,1056,320C1024,320,992,320,960,320C928,320,896,320,864,320C832,320,800,320,768,320C736,320,704,320,672,320C640,320,608,320,576,320C544,320,512,320,480,320C448,320,416,320,384,320C352,320,320,320,288,320C256,320,224,320,192,320C160,320,128,320,96,320C64,320,32,320,16,320L0,320Z"></path></svg>