<?xml version="1.0" standalone="no"?><svg xmlns="http://www.w3.org/2000/svg" viewBox="0 0 1440 320"><path fill="#e7008a" fill-opacity="0.5" d="M0,32L16,69.3C32,107,64,181,96,224C128,267,160,277,192,272C224,267,256,245,288,213.3C320,181,352,139,384,138.7C416,139,448,181,480,213.3C512,245,544,267,576,245.3C608,224,640,160,672,133.3C704,107,736,117,768,122.7C800,128,832,128,864,122.7C896,117,928,107,960,90.7C992,75,1024,53,1056,64C1088,75,1120,117,1152,149.3C1184,181,1216,203,1248,186.7C1280,171,1312,117,1344,85.3C1376,53,1408,43,1424,37.3L1440,32L1440,320L1424,320C1408,320,1376,320,1344,320C1312,320,1280,320,1248,320C1216,320,1184,320,1152,320C1120,320,1088,320,1056,320C1024,320,992,320,960,320C928,320,896,320,864,320C832,320,800,320,768,320C736,320,704,320,672,320C640,320,608,320,576,320C544,320,512,320,480,320C448,320,416,320,384,320C352,320,320,320,288,320C256,320,224,320,192,320C160,320,128,320,96,320C64,320,32,320,16,320L0,320Z"></path></svg>